HIERARCHY
ROOT Hips
{
	OFFSET 0.000000 0.000000 0.000000
	CHANNELS 6 Xposition Yposition Zposition Zrotation Yrotation Xrotation 
	JOINT LHipJoint
	{
		OFFSET 0.000000 0.000000 0.000000
		CHANNELS 3 Zrotation Yrotation Xrotation
		JOINT LeftUpLeg
		{
			OFFSET 1.363060 -1.794630 0.839290
			CHANNELS 3 Zrotation Yrotation Xrotation
			JOINT LeftLeg
			{
				OFFSET 2.448110 -6.726130 0.000000
				CHANNELS 3 Zrotation Yrotation Xrotation
				JOINT LeftFoot
				{
					OFFSET 2.562200 -7.039590 0.000000
					CHANNELS 3 Zrotation Yrotation Xrotation
					JOINT LeftToeBase
					{
						OFFSET 0.157640 -0.433110 2.322550
						CHANNELS 3 Zrotation Yrotation Xrotation
						End Site
						{
							OFFSET 0.000000 0.000000 0.000000
						}
					}
				}
			}
		}
	}
	JOINT RHipJoint
	{
		OFFSET 0.000000 0.000000 0.000000
		CHANNELS 3 Zrotation Yrotation Xrotation
		JOINT RightUpLeg
		{
			OFFSET -1.305520 -1.794630 0.839290
			CHANNELS 3 Zrotation Yrotation Xrotation
			JOINT RightLeg
			{
				OFFSET -2.542530 -6.985550 0.000000
				CHANNELS 3 Zrotation Yrotation Xrotation
				JOINT RightFoot
				{
					OFFSET -2.568260 -7.056230 0.000000
					CHANNELS 3 Zrotation Yrotation Xrotation
					JOINT RightToeBase
					{
						OFFSET -0.164730 -0.452590 2.363150
						CHANNELS 3 Zrotation Yrotation Xrotation
						End Site
						{
							OFFSET 0.000000 0.000000 0.000000
						}
					}
				}
			}
		}
	}
}
MOTION
Frames: 16
Frame Time: 0.008333
-21.378074 17.024616 0.486277 24.642771 85.046650 28.760646 -9.949569 1.611067 2.111130 -17.512539 9.335719 -28.257057 -2.948277 -0.326801 12.845987 0.911981 5.687081 -2.392686 0.726400 0.000000 -28.541900 10.151330 -5.052913 -0.246292 -0.179695 -12.035528 10.821136 0.785277 -2.342655 23.093439 0.492789 14.115754 21.076042 6.430901 -0.000000 -90.718300
-21.236409 17.024567 0.485080 24.869574 84.736891 28.898524 -9.918115 1.663020 2.059058 -17.615977 9.480977 -28.093642 -2.900103 -0.258851 13.703892 0.964863 6.049729 -2.473663 0.746801 -0.000000 -27.039300 10.337868 -5.071235 -0.176244 -0.888632 -12.000430 9.989582 0.634006 -2.437646 24.955328 0.400364 15.241207 22.633440 7.358400 -0.000000 -91.276000
-21.098020 17.027580 0.484481 25.278986 84.470571 29.212951 -9.878177 1.704403 2.004990 -17.710999 9.558049 -27.885182 -2.848113 -0.197330 14.544443 1.024506 6.439085 -2.630458 0.758700 0.000001 -25.621000 10.526976 -5.071992 -0.119288 -1.541747 -11.959691 9.089145 0.481097 -2.526916 26.917210 0.281490 16.247466 24.341508 8.321299 0.000000 -91.339000
-20.963695 17.033283 0.483816 25.723672 84.245758 29.551861 -9.834798 1.735119 1.950168 -17.778892 9.560775 -27.606094 -2.792923 -0.143754 15.333660 1.088771 6.839035 -2.862578 0.758600 0.000000 -24.286900 10.711462 -5.050369 -0.082726 -2.124117 -11.925560 8.137723 0.331447 -2.609120 28.964472 0.139116 17.096591 26.190298 9.289801 0.000000 -90.808800
-20.833745 17.041281 0.482239 26.069762 84.058860 29.776071 -9.794915 1.755656 1.894413 -17.803539 9.498291 -27.240611 -2.735887 -0.098581 16.045821 1.154632 7.228996 -3.165628 0.743500 0.000000 -23.029500 10.882549 -5.003605 -0.071636 -2.620051 -11.905902 7.153247 0.190185 -2.683747 31.080686 -0.022086 17.737136 28.143009 10.210100 0.000001 -89.577900
-20.708208 17.051079 0.479114 26.232285 83.904723 29.795454 -9.764520 1.767049 1.836437 -17.775808 9.388295 -26.777918 -2.678801 -0.061953 16.660064 1.218989 7.591046 -3.529534 0.711600 0.000000 -21.839500 11.033659 -4.931517 -0.089737 -3.023054 -11.910487 6.150329 0.061473 -2.751698 33.250556 -0.196452 18.111561 30.138372 11.009100 0.000001 -87.574000
-20.587199 17.062202 0.473842 26.132873 83.776151 29.528070 -9.749679 1.771347 1.774563 -17.690897 9.257829 -26.218053 -2.623544 -0.033061 17.165077 1.278701 7.908547 -3.940905 0.662800 -0.000000 -20.710199 11.158582 -4.836135 -0.138281 -3.328766 -11.945983 5.139541 -0.052927 -2.814980 35.458523 -0.377987 18.149243 32.090744 11.592100 -0.000001 -84.784700
-20.470144 17.074159 0.466035 25.728401 83.666748 28.928826 -9.754414 1.771172 1.707275 -17.548773 9.136015 -25.568548 -2.571765 -0.010643 17.558179 1.330954 8.168587 -4.383666 0.598800 -0.000000 -19.646800 11.253981 -4.721475 -0.216661 -3.539009 -12.019715 4.128105 -0.154196 -2.876343 37.686053 -0.561459 17.778814 33.898475 11.858600 0.000000 -81.325400
-20.356792 17.086620 0.455727 25.039262 83.561717 28.016413 -9.777120 1.769401 1.632389 -17.361145 9.045483 -24.827615 -2.524803 0.005059 17.824192 1.375365 8.378152 -4.833108 0.525400 -0.000000 -18.650800 11.323343 -4.591157 -0.322194 -3.669326 -12.127514 3.115919 -0.246940 -2.939243 39.922753 -0.744907 16.936252 35.469881 11.722200 0.000000 -77.394900
-20.246374 17.099209 0.442824 24.019551 83.458601 26.750125 -9.821100 1.769601 1.550117 -17.127044 9.018455 -24.029127 -2.483492 0.017331 17.988447 1.409169 8.521765 -5.277748 0.444700 -0.000000 -17.755599 11.363775 -4.450945 -0.448866 -3.711677 -12.267577 2.106756 -0.337134 -3.005091 42.139444 -0.925521 15.573991 36.690276 11.114700 -0.000000 -73.334799
-20.138474 17.111843 0.427637 22.709756 83.344700 25.173496 -9.882317 1.774590 1.459389 -16.858008 9.072611 -23.182466 -2.448320 0.026439 18.049277 1.432859 8.609723 -5.697000 0.362901 -0.000000 -16.978801 11.381093 -4.304256 -0.589674 -3.676438 -12.421284 1.097807 -0.431698 -3.075555 44.322130 -1.103950 13.682801 37.475813 10.021400 0.000001 -69.434901
-20.032453 17.124409 0.410585 21.148596 83.216563 23.332209 -9.957534 1.786824 1.361391 -16.560501 9.220694 -22.311450 -2.419375 0.033746 18.023721 1.446297 8.643787 -6.079391 0.283600 -0.000000 -16.352200 11.379528 -4.155088 -0.737171 -3.565794 -12.577655 0.087030 -0.535866 -3.150809 46.449737 -1.279758 11.305453 37.747710 8.485400 -0.000000 -65.959000
-19.927511 17.136981 0.392200 19.399323 83.072248 21.295866 -10.042108 1.807747 1.257612 -16.241497 9.466266 -21.433181 -2.396539 0.039777 17.924573 1.450031 8.629034 -6.417029 0.210300 0.000000 -15.896900 11.364503 -4.006646 -0.884530 -3.384512 -12.723505 -0.927725 -0.652666 -3.230803 48.504019 -1.451886 8.533538 37.447881 6.606400 0.000000 -63.041700
-19.823270 17.149616 0.373070 17.545077 82.916656 19.155931 -10.130857 1.837789 1.151456 -15.908782 9.799997 -20.564043 -2.379366 0.044631 17.766690 1.445127 8.571707 -6.707047 0.144600 0.000000 -15.631800 11.341414 -3.862057 -1.026511 -3.140037 -12.855888 -1.949554 -0.781785 -3.314873 50.463564 -1.617987 5.504410 36.547244 4.532800 -0.000000 -60.736499
-19.719164 17.162433 0.353770 15.665701 82.755615 16.998013 -10.219364 1.876435 1.046146 -15.569086 10.205800 -19.711412 -2.367347 0.047842 17.558456 1.432907 8.478645 -6.950781 0.087600 0.000000 -15.556100 11.314393 -3.723675 -1.159476 -2.840465 -12.970856 -2.978261 -0.920256 -3.402263 52.307830 -1.774754 2.375298 35.045039 2.433000 0.000001 -58.941200
-19.615035 17.175561 0.334833 13.840162 82.598869 14.906783 -10.303868 1.922538 0.945975 -15.229616 10.658219 -18.878773 -2.359710 0.048687 17.306657 1.415094 8.358252 -7.152695 0.039000 -0.000000 -15.658400 11.286526 -3.593443 -1.281707 -2.496583 -13.073027 -4.014789 -1.062375 -3.491864 54.017420 -1.917936 -0.689475 32.968325 0.475100 0.000000 -57.420000
